<svg width="3873" height="810" viewBox="0 0 3873 810" fill="none" xmlns="http://www.w3.org/2000/svg">
<path fill-rule="evenodd" clip-rule="evenodd" d="M994.756 385.285L242.212 0C242.212 260.706 388.199 499.457 620.259 618.266C807.801 714.283 994.756 810 994.756 810V385.285Z" fill="#121212"/>
<path fill-rule="evenodd" clip-rule="evenodd" d="M1632.39 810C1632.39 549.294 1486.4 310.543 1254.34 191.734C1066.8 95.7159 879.847 0 879.847 0V424.715L1632.39 810Z" fill="#121212"/>
<path fill-rule="evenodd" clip-rule="evenodd" d="M225.877 810L159.89 650.11L0 584.124L159.89 518.137L225.877 358.247L291.863 518.137L451.752 584.124L291.863 650.11L225.877 810Z" fill="#121212"/>
<path d="M3562.32 296.101H3651.39L3707.66 463.84C3709.44 469.173 3710.95 474.596 3712.19 480.107C3713.44 485.618 3714.51 491.308 3715.39 497.174C3716.28 503.041 3716.99 509.175 3717.53 515.575H3719.13C3720.19 505.975 3721.62 496.997 3723.39 488.641C3725.35 480.285 3727.75 472.018 3730.6 463.84L3785.8 296.101H3873L3746.86 632.379C3739.22 653.002 3729.26 670.158 3716.99 683.847C3704.73 697.715 3690.59 708.115 3674.59 715.048C3658.77 721.982 3641.35 725.449 3622.32 725.449C3613.08 725.449 3605.08 724.915 3598.32 723.849C3591.57 722.96 3585.79 721.982 3580.99 720.915V656.38C3584.72 657.269 3589.43 658.069 3595.12 658.78C3600.81 659.491 3606.77 659.847 3612.99 659.847C3624.37 659.847 3634.15 657.447 3642.33 652.646C3650.5 647.846 3657.35 641.357 3662.86 633.179C3668.37 625.179 3672.73 616.378 3675.93 606.778L3680.73 592.111L3562.32 296.101Z" fill="#121212"/>
<path d="M3405.25 290.501C3432.81 290.501 3456.54 295.834 3476.45 306.501C3496.36 316.99 3511.74 332.28 3522.59 352.369C3533.43 372.459 3538.86 396.993 3538.86 425.972V465.44H3346.58C3347.47 488.374 3354.32 506.419 3367.12 519.575C3380.09 532.553 3398.05 539.042 3420.98 539.042C3440.01 539.042 3457.43 537.087 3473.25 533.176C3489.08 529.264 3505.34 523.397 3522.05 515.575V578.51C3507.3 585.8 3491.83 591.133 3475.65 594.511C3459.65 597.889 3440.19 599.578 3417.25 599.578C3387.38 599.578 3360.89 594.067 3337.78 583.044C3314.85 572.021 3296.8 555.221 3283.65 532.642C3270.67 510.064 3264.18 481.618 3264.18 447.306C3264.18 412.46 3270.05 383.482 3281.78 360.37C3293.69 337.08 3310.23 319.657 3331.38 308.101C3352.54 296.368 3377.16 290.501 3405.25 290.501ZM3405.78 348.369C3389.96 348.369 3376.81 353.436 3366.32 363.57C3356 373.703 3350.05 389.615 3348.45 411.305H3462.59C3462.41 399.215 3460.19 388.46 3455.92 379.037C3451.83 369.614 3445.61 362.148 3437.25 356.636C3429.07 351.125 3418.58 348.369 3405.78 348.369Z" fill="#121212"/>
<path d="M3239.65 594.244H3145.78L3043.64 429.972L3008.7 455.04V594.244H2926.03V204.364H3008.7V382.77C3014.22 375.126 3019.64 367.481 3024.97 359.836C3030.3 352.192 3035.73 344.547 3041.24 336.902L3146.84 204.364H3238.58L3102.57 376.904L3239.65 594.244Z" fill="#121212"/>
<path d="M2834.03 296.101V594.244H2752.7V296.101H2834.03ZM2793.5 179.297C2805.59 179.297 2815.99 182.141 2824.7 187.831C2833.41 193.342 2837.76 203.742 2837.76 219.032C2837.76 234.143 2833.41 244.632 2824.7 250.499C2815.99 256.188 2805.59 259.033 2793.5 259.033C2781.23 259.033 2770.74 256.188 2762.03 250.499C2753.5 244.632 2749.23 234.143 2749.23 219.032C2749.23 203.742 2753.5 193.342 2762.03 187.831C2770.74 182.141 2781.23 179.297 2793.5 179.297Z" fill="#121212"/>
<path d="M2667.09 594.244H2585.76V179.297H2667.09V594.244Z" fill="#121212"/>
<path d="M2500.15 296.101V594.244H2418.82V296.101H2500.15ZM2459.62 179.297C2471.71 179.297 2482.11 182.141 2490.82 187.831C2499.53 193.342 2503.89 203.742 2503.89 219.032C2503.89 234.143 2499.53 244.632 2490.82 250.499C2482.11 256.188 2471.71 259.033 2459.62 259.033C2447.35 259.033 2436.86 256.188 2428.15 250.499C2419.62 244.632 2415.35 234.143 2415.35 219.032C2415.35 203.742 2419.62 193.342 2428.15 187.831C2436.86 182.141 2447.35 179.297 2459.62 179.297Z" fill="#121212"/>
<path d="M2075.07 594.244L1981.2 288.367H1978.8C1979.16 295.656 1979.69 306.679 1980.4 321.435C1981.29 336.013 1982.09 351.569 1982.8 368.103C1983.51 384.637 1983.87 399.571 1983.87 412.905V594.244H1910V204.364H2022.54L2114.81 502.508H2116.41L2214.28 204.364H2326.81V594.244H2249.74V409.705C2249.74 397.438 2249.92 383.304 2250.28 367.303C2250.81 351.303 2251.43 336.102 2252.14 321.702C2252.86 307.123 2253.39 296.19 2253.75 288.901H2251.34L2150.81 594.244H2075.07Z" fill="#121212"/>
</svg>
